<svg width="1920" height="918" viewBox="0 0 1920 918" fill="none" xmlns="http://www.w3.org/2000/svg">
<g filter="url(#filter0_d)">
<path d="M4 0H1916V910H4V0Z" fill="#FAFAFA"/>
<path d="M765.404 336.239V353.989H763.154V345.914H753.379V353.989H751.129V336.239H753.379V343.914H763.154V336.239H765.404ZM774.864 354.239C773.564 354.239 772.414 353.931 771.414 353.314C770.414 352.697 769.631 351.872 769.064 350.839C768.498 349.806 768.214 348.681 768.214 347.464C768.214 346.231 768.498 345.106 769.064 344.089C769.631 343.072 770.414 342.256 771.414 341.639C772.431 341.022 773.589 340.714 774.889 340.714C776.206 340.714 777.348 341.031 778.314 341.664C779.298 342.281 780.056 343.097 780.589 344.114C781.139 345.114 781.414 346.197 781.414 347.364C781.414 347.731 781.398 348.014 781.364 348.214H770.539C770.606 349.064 770.839 349.822 771.239 350.489C771.656 351.139 772.189 351.656 772.839 352.039C773.489 352.406 774.189 352.589 774.939 352.589C775.739 352.589 776.489 352.389 777.189 351.989C777.906 351.589 778.398 351.064 778.664 350.414L780.564 350.939C780.148 351.906 779.423 352.697 778.389 353.314C777.356 353.931 776.181 354.239 774.864 354.239ZM770.464 346.689H779.364C779.298 345.839 779.056 345.089 778.639 344.439C778.223 343.789 777.689 343.281 777.039 342.914C776.389 342.547 775.673 342.364 774.889 342.364C774.123 342.364 773.414 342.547 772.764 342.914C772.114 343.281 771.581 343.789 771.164 344.439C770.764 345.089 770.531 345.839 770.464 346.689ZM783.91 335.739H786.11V350.614C786.11 351.331 786.21 351.772 786.41 351.939C786.61 352.106 786.852 352.189 787.135 352.189C787.485 352.189 787.818 352.156 788.135 352.089C788.452 352.006 788.718 351.922 788.935 351.839L789.285 353.639C788.918 353.789 788.485 353.914 787.985 354.014C787.485 354.114 787.043 354.164 786.66 354.164C785.81 354.164 785.135 353.922 784.635 353.439C784.152 352.956 783.91 352.281 783.91 351.414V335.739ZM791.063 335.739H793.263V350.614C793.263 351.331 793.363 351.772 793.563 351.939C793.763 352.106 794.005 352.189 794.288 352.189C794.638 352.189 794.972 352.156 795.288 352.089C795.605 352.006 795.872 351.922 796.088 351.839L796.438 353.639C796.072 353.789 795.638 353.914 795.138 354.014C794.638 354.114 794.197 354.164 793.813 354.164C792.963 354.164 792.288 353.922 791.788 353.439C791.305 352.956 791.063 352.281 791.063 351.414V335.739ZM803.867 354.239C802.567 354.239 801.417 353.931 800.417 353.314C799.433 352.681 798.667 351.856 798.117 350.839C797.567 349.806 797.292 348.689 797.292 347.489C797.292 346.272 797.567 345.156 798.117 344.139C798.683 343.106 799.458 342.281 800.442 341.664C801.442 341.031 802.583 340.714 803.867 340.714C805.167 340.714 806.308 341.031 807.292 341.664C808.292 342.281 809.067 343.106 809.617 344.139C810.183 345.156 810.467 346.272 810.467 347.489C810.467 348.689 810.183 349.806 809.617 350.839C809.067 351.856 808.3 352.681 807.317 353.314C806.333 353.931 805.183 354.239 803.867 354.239ZM799.542 347.514C799.542 348.414 799.733 349.231 800.117 349.964C800.517 350.697 801.042 351.281 801.692 351.714C802.342 352.131 803.067 352.339 803.867 352.339C804.667 352.339 805.392 352.122 806.042 351.689C806.708 351.256 807.233 350.672 807.617 349.939C808.017 349.189 808.217 348.364 808.217 347.464C808.217 346.564 808.017 345.747 807.617 345.014C807.233 344.281 806.708 343.697 806.042 343.264C805.392 342.831 804.667 342.614 803.867 342.614C803.067 342.614 802.342 342.839 801.692 343.289C801.042 343.722 800.517 344.306 800.117 345.039C799.733 345.772 799.542 346.597 799.542 347.514ZM812.719 356.014L813.219 353.789H812.469V351.189H814.544V353.789L813.794 356.014H812.719ZM824.591 353.989V336.239H826.841V353.989H824.591ZM836.033 350.214C836.033 349.381 836.267 348.664 836.733 348.064C837.217 347.447 837.875 346.972 838.708 346.639C839.542 346.306 840.508 346.139 841.608 346.139C842.192 346.139 842.808 346.189 843.458 346.289C844.108 346.372 844.683 346.506 845.183 346.689V345.739C845.183 344.739 844.883 343.956 844.283 343.389C843.683 342.806 842.833 342.514 841.733 342.514C841.017 342.514 840.325 342.647 839.658 342.914C839.008 343.164 838.317 343.531 837.583 344.014L836.783 342.464C837.633 341.881 838.483 341.447 839.333 341.164C840.183 340.864 841.067 340.714 841.983 340.714C843.65 340.714 844.967 341.181 845.933 342.114C846.9 343.031 847.383 344.314 847.383 345.964V351.489C847.383 352.006 847.617 352.272 848.083 352.289V353.989C847.867 354.022 847.675 354.047 847.508 354.064C847.358 354.081 847.233 354.089 847.133 354.089C846.617 354.089 846.225 353.947 845.958 353.664C845.708 353.381 845.567 353.081 845.533 352.764L845.483 351.939C844.917 352.672 844.175 353.239 843.258 353.639C842.342 354.039 841.433 354.239 840.533 354.239C839.667 354.239 838.892 354.064 838.208 353.714C837.525 353.347 836.992 352.864 836.608 352.264C836.225 351.647 836.033 350.964 836.033 350.214ZM844.533 351.139C844.733 350.906 844.892 350.672 845.008 350.439C845.125 350.189 845.183 349.981 845.183 349.814V348.189C844.117 347.772 843.017 347.564 841.883 347.564C840.767 347.564 839.858 347.789 839.158 348.239C838.475 348.672 838.133 349.272 838.133 350.039C838.133 350.456 838.242 350.864 838.458 351.264C838.692 351.647 839.025 351.964 839.458 352.214C839.908 352.464 840.458 352.589 841.108 352.589C841.792 352.589 842.442 352.456 843.058 352.189C843.675 351.906 844.167 351.556 844.533 351.139ZM870.576 353.989H868.376V346.689C868.376 345.322 868.151 344.314 867.701 343.664C867.268 343.014 866.618 342.689 865.751 342.689C864.868 342.689 864.068 343.014 863.351 343.664C862.634 344.297 862.126 345.122 861.826 346.139V353.989H859.626V346.689C859.626 345.306 859.409 344.297 858.976 343.664C858.543 343.014 857.893 342.689 857.026 342.689C856.159 342.689 855.359 343.006 854.626 343.639C853.909 344.256 853.401 345.081 853.101 346.114V353.989H850.901V340.939H852.901V343.739C853.434 342.772 854.126 342.031 854.976 341.514C855.826 340.981 856.784 340.714 857.851 340.714C858.934 340.714 859.801 341.014 860.451 341.614C861.101 342.197 861.501 342.956 861.651 343.889C862.818 341.772 864.476 340.714 866.626 340.714C867.626 340.714 868.409 340.956 868.976 341.439C869.559 341.906 869.968 342.556 870.201 343.389C870.451 344.206 870.576 345.139 870.576 346.189V353.989ZM751.804 365.239L757.179 374.489L762.604 365.239H765.054L758.304 376.514V382.989H756.054V376.464L749.329 365.239H751.804ZM765.571 377.764V369.939H767.771V377.339C767.771 380.006 768.696 381.339 770.546 381.339C771.446 381.339 772.288 381.056 773.071 380.489C773.871 379.906 774.463 379.114 774.846 378.114V369.939H777.046V380.489C777.046 381.006 777.279 381.272 777.746 381.289V382.989C777.496 383.022 777.296 383.039 777.146 383.039C777.013 383.056 776.879 383.064 776.746 383.064C776.329 383.064 775.971 382.939 775.671 382.689C775.371 382.422 775.213 382.097 775.196 381.714L775.146 380.189C774.579 381.156 773.813 381.906 772.846 382.439C771.896 382.972 770.854 383.239 769.721 383.239C766.954 383.239 765.571 381.414 765.571 377.764ZM787.384 382.989V365.239H799.109V367.239H789.634V373.164H797.609V375.039H789.634V382.989H787.384ZM799.168 379.214C799.168 378.381 799.401 377.664 799.868 377.064C800.351 376.447 801.01 375.972 801.843 375.639C802.676 375.306 803.643 375.139 804.743 375.139C805.326 375.139 805.943 375.189 806.593 375.289C807.243 375.372 807.818 375.506 808.318 375.689V374.739C808.318 373.739 808.018 372.956 807.418 372.389C806.818 371.806 805.968 371.514 804.868 371.514C804.151 371.514 803.46 371.647 802.793 371.914C802.143 372.164 801.451 372.531 800.718 373.014L799.918 371.464C800.768 370.881 801.618 370.447 802.468 370.164C803.318 369.864 804.201 369.714 805.118 369.714C806.785 369.714 808.101 370.181 809.068 371.114C810.035 372.031 810.518 373.314 810.518 374.964V380.489C810.518 381.006 810.751 381.272 811.218 381.289V382.989C811.001 383.022 810.81 383.047 810.643 383.064C810.493 383.081 810.368 383.089 810.268 383.089C809.751 383.089 809.36 382.947 809.093 382.664C808.843 382.381 808.701 382.081 808.668 381.764L808.618 380.939C808.051 381.672 807.31 382.239 806.393 382.639C805.476 383.039 804.568 383.239 803.668 383.239C802.801 383.239 802.026 383.064 801.343 382.714C800.66 382.347 800.126 381.864 799.743 381.264C799.36 380.647 799.168 379.964 799.168 379.214ZM807.668 380.139C807.868 379.906 808.026 379.672 808.143 379.439C808.26 379.189 808.318 378.981 808.318 378.814V377.189C807.251 376.772 806.151 376.564 805.018 376.564C803.901 376.564 802.993 376.789 802.293 377.239C801.61 377.672 801.268 378.272 801.268 379.039C801.268 379.456 801.376 379.864 801.593 380.264C801.826 380.647 802.16 380.964 802.593 381.214C803.043 381.464 803.593 381.589 804.243 381.589C804.926 381.589 805.576 381.456 806.193 381.189C806.81 380.906 807.301 380.556 807.668 380.139ZM825.361 382.989H823.161V375.689C823.161 374.306 822.944 373.297 822.511 372.664C822.094 372.014 821.452 371.689 820.586 371.689C819.986 371.689 819.386 371.839 818.786 372.139C818.202 372.439 817.677 372.847 817.211 373.364C816.761 373.864 816.436 374.447 816.236 375.114V382.989H814.036V369.939H816.036V372.739C816.552 371.822 817.294 371.089 818.261 370.539C819.244 369.989 820.311 369.714 821.461 369.714C822.477 369.714 823.261 369.956 823.811 370.439C824.377 370.906 824.777 371.556 825.011 372.389C825.244 373.206 825.361 374.139 825.361 375.189V382.989ZM833.982 383.139C832.799 383.139 831.749 382.831 830.832 382.214C829.932 381.581 829.224 380.756 828.707 379.739C828.207 378.722 827.957 377.639 827.957 376.489C827.957 375.256 828.207 374.131 828.707 373.114C829.224 372.081 829.94 371.256 830.857 370.639C831.774 370.022 832.824 369.714 834.007 369.714C835.09 369.714 836.032 369.981 836.832 370.514C837.649 371.047 838.332 371.722 838.882 372.539V369.939H840.832V382.839C840.832 384.072 840.532 385.114 839.932 385.964C839.349 386.814 838.549 387.456 837.532 387.889C836.532 388.339 835.415 388.564 834.182 388.564C832.715 388.564 831.515 388.306 830.582 387.789C829.649 387.272 828.874 386.572 828.257 385.689L829.532 384.564C830.049 385.331 830.715 385.906 831.532 386.289C832.365 386.672 833.249 386.864 834.182 386.864C834.982 386.864 835.715 386.714 836.382 386.414C837.065 386.131 837.607 385.689 838.007 385.089C838.424 384.489 838.632 383.739 838.632 382.839V380.539C838.149 381.339 837.482 381.972 836.632 382.439C835.799 382.906 834.915 383.139 833.982 383.139ZM834.657 381.339C835.274 381.339 835.865 381.197 836.432 380.914C836.999 380.631 837.474 380.264 837.857 379.814C838.257 379.364 838.515 378.897 838.632 378.414V374.664C838.282 373.781 837.715 373.056 836.932 372.489C836.149 371.906 835.324 371.614 834.457 371.614C833.574 371.614 832.807 371.856 832.157 372.339C831.524 372.822 831.032 373.439 830.682 374.189C830.349 374.939 830.182 375.722 830.182 376.539C830.182 377.406 830.382 378.206 830.782 378.939C831.182 379.656 831.715 380.239 832.382 380.689C833.065 381.122 833.824 381.339 834.657 381.339Z" fill="black"/>
<path d="M1248.21 517.523C1248.21 439.278 1217.85 364.238 1163.82 308.91C1109.79 253.583 1036.51 222.5 960.104 222.5C883.694 222.5 810.414 253.583 756.384 308.91C702.354 364.238 672 439.278 672 517.523L960.104 517.523H1248.21Z" fill="#F2F2F2"/>
<path d="M804.721 473.92C793.321 491.651 796.445 514.202 796.445 514.202C796.445 514.202 818.052 508.006 829.452 490.275C840.852 472.545 837.729 449.994 837.729 449.994C837.729 449.994 816.122 456.19 804.721 473.92Z" fill="#3F3D56"/>
<path d="M796.049 514.202C796.049 514.202 795.766 514.157 795.245 514.052C794.829 513.967 794.256 513.847 793.557 513.682C787.306 512.212 770.686 507.244 759.82 494.182C746.221 477.826 746.793 454.976 746.793 454.976C746.793 454.976 767.588 458.345 781.29 473.033C781.883 473.664 782.461 474.318 783.023 474.995C794.856 489.226 795.959 508.374 796.046 513.108C796.059 513.817 796.049 514.202 796.049 514.202Z" fill="#B6CCCD"/>
<path d="M787.711 473.92C799.411 491.651 796.205 514.202 796.205 514.202C796.205 514.202 774.029 508.006 762.329 490.275C750.628 472.545 753.834 449.994 753.834 449.994C753.834 449.994 776.01 456.19 787.711 473.92Z" stroke="#C4C4C4" stroke-width="2" stroke-miterlimit="10"/>
<path opacity="0.1" d="M796.053 512.971C795.736 513.337 795.455 513.65 795.225 513.906C794.715 514.463 794.425 514.755 794.425 514.755C794.425 514.755 794.073 514.332 793.482 513.54C790.236 509.207 779.793 493.803 780.599 476.01C780.642 475.077 780.714 474.154 780.814 473.242C781.427 473.867 782.023 474.516 782.603 475.187C794.824 489.295 795.963 508.278 796.053 512.971Z" fill="black"/>
<path d="M812.616 477.208C811.706 498.301 796.065 514.755 796.065 514.755C796.065 514.755 781.9 497.011 782.811 475.918C783.721 454.825 799.362 438.37 799.362 438.37C799.362 438.37 813.527 456.114 812.616 477.208Z" fill="#B6CCCD"/>
<path d="M796.606 514.202L799.374 438.924" stroke="#C4C4C4" stroke-width="2" stroke-miterlimit="10"/>
<path d="M943.5 346C943.5 346 957.369 362.92 930.552 368.89C910.186 378.356 932.589 388.452 932.589 388.452L956.35 393.5C956.35 393.5 980.79 390.345 983.506 386.559C986.221 382.773 990.973 370.152 989.616 368.259C988.6 366.911 990.859 367.044 989.616 365.872C989.616 365.872 962.601 363.189 969.276 347.785C980.642 321.551 943.5 346 943.5 346Z" fill="#F8D9BD"/>
<path d="M959.071 389.772C959.071 389.772 933.353 386.706 932.848 368.231C932.848 368.231 923.386 370.428 920.627 373.208C917.867 375.987 920.41 385.39 922.5 399C922.5 405.948 926.708 426.932 926.708 426.932C926.708 426.932 931.476 438.407 928.026 443.271C924.577 448.134 923.887 460.64 923.887 460.64C923.887 460.64 958.381 457.861 963.901 460.64C969.42 463.42 991.496 463.42 992.876 460.64C994.256 457.861 992.876 423.966 992.876 423.966C992.876 423.966 996.109 411.934 997.161 402.19L1008.6 394.498L999.198 368.579C999.198 368.579 983.907 363.371 983.563 365.108C983.218 366.845 990.117 386.299 959.071 389.772Z" fill="#B6CCCD"/>
<path d="M1010.64 443.352L992.587 453.664C992.587 453.664 968.974 452.289 978.002 459.164C987.031 466.039 1003.7 463.289 1003.7 463.289L1019.67 455.727L1010.64 443.352Z" fill="#FFB9B9"/>
<path d="M920.936 460.511C920.936 460.511 904.386 501.78 924.384 508.075C944.382 514.371 999.549 512.972 1011.96 504.578C1024.37 496.184 1027.82 484.993 1025.75 481.495C1023.68 477.998 1009.89 468.205 1000.24 467.506C990.584 466.806 920.936 460.511 920.936 460.511Z" fill="#2F2E41"/>
<path opacity="0.05" d="M920.936 460.511C920.936 460.511 904.386 501.78 924.384 508.075C944.382 514.371 999.549 512.972 1011.96 504.578C1024.37 496.184 1027.82 484.993 1025.75 481.495C1023.68 477.998 1009.89 468.205 1000.24 467.506C990.584 466.806 920.936 460.511 920.936 460.511Z" fill="black"/>
<path d="M998.978 463.34C998.978 463.34 1057.44 441.84 1056.75 467.781C1056.06 493.722 1019.48 500.733 1019.48 500.733L1008.44 502.135L947.709 504.239C947.709 504.239 949.779 493.021 944.948 491.619C944.948 491.619 960.822 487.412 961.512 486.711C962.202 486.01 1001.54 471.988 1004.3 471.287C1007.06 470.585 1015.34 464.977 1021.55 465.678C1021.55 465.678 1028.46 460.069 1036.05 461.471L1014.65 462.873L998.978 463.34Z" fill="#2F2E41"/>
<path opacity="0.1" d="M998.978 463.34C998.978 463.34 1057.44 441.84 1056.75 467.781C1056.06 493.722 1019.48 500.733 1019.48 500.733L1008.44 502.135L947.709 504.239C947.709 504.239 949.779 493.021 944.948 491.619C944.948 491.619 960.822 487.412 961.512 486.711C962.202 486.01 1001.54 471.988 1004.3 471.287C1007.06 470.585 1015.34 464.977 1021.55 465.678C1021.55 465.678 1028.46 460.069 1036.05 461.471L1014.65 462.873L998.978 463.34Z" fill="black"/>
<path d="M988.676 467.158L996.076 483.759L1041.12 468.09L1044.58 459.234L1032.8 457.19L1009.12 461.277L998.848 464.003L988.676 467.158Z" fill="#2F2E41"/>
<path opacity="0.1" d="M988.676 467.158L996.076 483.759L1041.12 468.09L1044.58 459.234L1032.8 457.19L1009.12 461.277L998.848 464.003L988.676 467.158Z" fill="black"/>
<path d="M892.721 487.397C892.721 487.397 905.952 504.059 921.272 508.224C936.592 512.39 944.948 506.836 944.948 506.836L940.074 487.397L937.985 474.901L928.932 468.652L910.827 460.321L889.24 453.379C889.24 453.379 880.187 451.99 880.187 453.379C880.187 454.767 888.543 475.595 888.543 475.595L892.721 487.397Z" fill="#2F2E41"/>
<path d="M908.417 496.599C908.417 496.599 911.217 516.852 914.718 518.249C918.219 519.646 928.721 516.852 931.521 515.456C934.322 514.059 943.841 507.614 943.841 507.614C943.841 507.614 910.517 495.202 908.417 496.599Z" fill="#CACACA"/>
<path d="M971.886 498.704L984.801 500.747L983.442 516.416L965.428 512.031L971.886 498.704Z" fill="#F8D9BD"/>
<path d="M979.868 502.884C979.868 502.884 973.485 510.083 979.937 514.159L984.238 517.555C984.238 517.555 998.574 520.272 1000.01 521.63C1001.44 522.989 1007.18 519.592 1007.18 519.592C1007.18 519.592 1007.89 499.215 1007.18 497.857C1006.46 496.498 997.858 495.14 997.141 496.498C996.424 497.857 987.822 499.895 982.804 498.536L979.868 502.884Z" fill="#CACACA"/>
<path d="M924.496 465.538C924.496 465.538 875.961 436.816 868.334 447.324C860.707 457.832 852.387 472.543 874.574 483.751C896.762 494.959 966.098 518.076 966.098 518.076C966.098 518.076 976.498 501.964 976.498 497.761C976.498 497.761 939.75 480.949 933.51 479.548C927.27 478.147 902.309 462.035 898.842 460.634C895.375 459.233 890.522 455.03 890.522 455.03L924.496 465.538Z" fill="#2F2E41"/>
<path d="M920.304 373.5C920.304 373.5 908.005 385.64 903.396 406.812C901.289 416.494 895.435 446.676 896.044 450.174C896.653 453.671 910.7 457.003 914.352 460.5C914.352 460.5 916.71 454.562 914.352 446.683L923 404.86L920.304 373.5Z" fill="#F8D9BD"/>
<path d="M999.216 368.5C999.216 368.5 1010.58 376.505 1014.87 397.008C1014.87 399.107 1020.91 429.895 1021.51 431.294C1022.12 432.694 1024.53 450.187 1021.51 454.385C1018.49 458.583 1005.21 462.5 1005.21 462.5C1005.21 462.5 998.993 450.621 1005.21 445.988L1006.41 440.391L997 401.5L999.216 368.5Z" fill="#F8D9BD"/>
<path d="M911.737 427.712V463.958C911.737 466.247 912.654 468.444 914.289 470.074C915.924 471.704 918.146 472.637 920.475 472.671L997.629 473.794C999.944 473.828 1002.18 472.97 1003.86 471.405C1005.54 469.839 1006.53 467.69 1006.62 465.416L1008.04 429.165C1008.09 428.004 1007.9 426.846 1007.48 425.759C1007.06 424.671 1006.43 423.677 1005.61 422.834C1004.8 421.991 1003.82 421.316 1002.74 420.849C1001.66 420.383 1000.49 420.134 999.308 420.117L920.735 418.998C919.56 418.981 918.393 419.194 917.302 419.625C916.211 420.055 915.218 420.694 914.381 421.505C913.544 422.316 912.879 423.282 912.425 424.348C911.971 425.413 911.737 426.557 911.737 427.712Z" fill="#A9AFAF"/>
<path d="M958.509 452.762C961.719 452.762 964.321 450.284 964.321 447.227C964.321 444.17 961.719 441.692 958.509 441.692C955.299 441.692 952.697 444.17 952.697 447.227C952.697 450.284 955.299 452.762 958.509 452.762Z" fill="#F2F2F2"/>
<path d="M1115.98 449.994C1114.46 441.026 1114.05 431.94 1114.78 422.895L1115.98 407.927C1109.35 419.428 1110.85 434.566 1115.98 449.994V449.994Z" fill="#909C9C"/>
<path d="M1119.86 453.315C1119.28 447.874 1119.13 442.385 1119.41 436.913L1119.86 427.854C1117.37 434.815 1117.93 443.977 1119.86 453.315Z" fill="#909C9C"/>
<path d="M1140.89 464.793V469.839C1140.89 470.24 1140.73 470.624 1140.44 470.908C1140.15 471.191 1139.76 471.351 1139.35 471.353H1136.77C1136.71 471.353 1136.64 471.366 1136.58 471.391C1136.51 471.417 1136.46 471.454 1136.41 471.501C1136.36 471.548 1136.32 471.603 1136.3 471.665C1136.27 471.726 1136.26 471.792 1136.26 471.858V513.241C1136.26 513.642 1136.09 514.026 1135.8 514.31C1135.51 514.593 1135.12 514.753 1134.71 514.755H1103.3C1102.9 514.755 1102.5 514.595 1102.21 514.312C1101.92 514.028 1101.76 513.643 1101.76 513.241V471.858C1101.76 471.724 1101.71 471.596 1101.61 471.502C1101.51 471.407 1101.38 471.354 1101.25 471.353H1098.16C1097.75 471.353 1097.35 471.193 1097.06 470.91C1096.77 470.626 1096.61 470.241 1096.61 469.839V464.793C1096.61 464.594 1096.65 464.397 1096.73 464.213C1096.81 464.029 1096.92 463.862 1097.06 463.721C1097.21 463.581 1097.38 463.469 1097.56 463.393C1097.75 463.317 1097.95 463.278 1098.16 463.279H1139.35C1139.76 463.28 1140.15 463.44 1140.44 463.723C1140.73 464.007 1140.89 464.391 1140.89 464.793V464.793Z" fill="#B6CCCD"/>
<path d="M1136.46 472.688H1101.59V473.795H1136.46V472.688Z" fill="#E6E6E6"/>
<path d="M1136.46 495.025C1124.97 499.903 1113.34 499.956 1101.59 495.025V483.913C1112.91 480.017 1125.15 480.017 1136.46 483.913V495.025Z" fill="#5E5C5C" fill-opacity="0.43"/>
<path d="M1473 519.184H449V516.97H1473V519.184Z" fill="#3F3D56"/>
<rect x="449" y="519.184" width="1024" height="87.4551" fill="#FFD2BB"/>
<path d="M838.254 275.833L845.462 289.69L843.705 290.604L840.427 284.3L832.795 288.269L836.074 294.573L834.317 295.487L827.11 281.629L828.866 280.715L831.983 286.707L839.614 282.738L836.498 276.746L838.254 275.833Z" fill="black"/>
<path d="M856.203 285.076C855.154 285.533 854.118 285.688 853.094 285.543C852.071 285.397 851.149 285.007 850.328 284.372C849.508 283.738 848.883 282.93 848.456 281.949C848.022 280.954 847.855 279.947 847.954 278.927C848.054 277.908 848.399 276.974 848.989 276.125C849.592 275.27 850.418 274.614 851.467 274.156C852.529 273.693 853.561 273.547 854.563 273.718C855.574 273.87 856.473 274.262 857.26 274.895C858.056 275.508 858.658 276.285 859.069 277.226C859.198 277.522 859.284 277.756 859.327 277.93L850.595 281.736C850.948 282.398 851.402 282.928 851.96 283.325C852.524 283.703 853.136 283.932 853.795 284.013C854.449 284.08 855.078 283.982 855.683 283.718C856.328 283.437 856.863 283.012 857.287 282.443C857.724 281.868 857.936 281.272 857.923 280.654L859.64 280.409C859.644 281.335 859.338 282.229 858.721 283.09C858.104 283.951 857.265 284.613 856.203 285.076ZM849.998 280.532L857.178 277.403C856.825 276.74 856.366 276.22 855.802 275.843C855.237 275.465 854.628 275.242 853.975 275.175C853.321 275.108 852.679 275.212 852.047 275.487C851.428 275.757 850.921 276.154 850.526 276.678C850.131 277.203 849.879 277.8 849.772 278.471C849.677 279.136 849.753 279.823 849.998 280.532Z" fill="black"/>
<path d="M860.842 265.596L862.654 264.915L867.262 277.167C867.484 277.757 867.703 278.09 867.92 278.166C868.136 278.241 868.361 278.235 868.594 278.147C868.882 278.039 869.147 277.908 869.387 277.755C869.622 277.588 869.816 277.437 869.968 277.301L870.814 278.675C870.559 278.912 870.24 279.15 869.86 279.387C869.479 279.624 869.13 279.802 868.815 279.921C868.115 280.184 867.484 280.194 866.922 279.951C866.374 279.703 865.966 279.221 865.698 278.508L860.842 265.596Z" fill="black"/>
<path d="M871.367 261.808L873.205 261.2L877.313 273.629C877.511 274.227 877.716 274.569 877.929 274.653C878.143 274.737 878.368 274.74 878.604 274.662C878.897 274.565 879.166 274.445 879.412 274.302C879.654 274.145 879.854 274.001 880.012 273.872L880.801 275.279C880.536 275.506 880.209 275.73 879.818 275.952C879.428 276.173 879.073 276.337 878.753 276.443C878.043 276.678 877.412 276.662 876.861 276.396C876.323 276.126 875.935 275.629 875.696 274.905L871.367 261.808Z" fill="black"/>
<path d="M891.252 272.764C890.148 273.067 889.101 273.073 888.109 272.783C887.127 272.474 886.284 271.953 885.58 271.218C884.873 270.469 884.379 269.586 884.1 268.567C883.817 267.535 883.79 266.523 884.02 265.532C884.26 264.523 884.726 263.643 885.417 262.891C886.118 262.12 887.013 261.586 888.102 261.287C889.205 260.984 890.248 260.987 891.23 261.295C892.222 261.586 893.072 262.105 893.779 262.854C894.497 263.585 894.997 264.467 895.281 265.499C895.56 266.517 895.58 267.531 895.339 268.54C895.109 269.531 894.651 270.409 893.964 271.176C893.273 271.928 892.369 272.458 891.252 272.764ZM886.015 268.065C886.225 268.828 886.578 269.477 887.074 270.01C887.584 270.539 888.165 270.912 888.818 271.128C889.467 271.33 890.13 271.338 890.809 271.152C891.488 270.966 892.053 270.613 892.504 270.094C892.968 269.571 893.278 268.954 893.433 268.242C893.597 267.512 893.575 266.766 893.365 266.002C893.156 265.238 892.796 264.592 892.286 264.062C891.79 263.529 891.208 263.157 890.542 262.944C889.889 262.728 889.223 262.713 888.544 262.899C887.865 263.085 887.303 263.445 886.856 263.978C886.405 264.498 886.095 265.115 885.927 265.83C885.772 266.542 885.802 267.287 886.015 268.065Z" fill="black"/>
<path d="M902.562 271.55L902.565 269.543L901.92 269.687L901.422 267.454L903.204 267.056L903.703 269.289L903.485 271.344L902.562 271.55Z" fill="black"/>
<path d="M920.716 266.311L918.438 250.858L920.397 250.569L922.675 266.022L920.716 266.311Z" fill="black"/>
<path d="M938.58 260.854C938.535 260.122 938.702 259.48 939.08 258.928C939.471 258.361 940.024 257.908 940.739 257.571C941.453 257.234 942.293 257.035 943.259 256.977C943.772 256.946 944.316 256.957 944.892 257.01C945.468 257.048 945.98 257.135 946.429 257.269L946.378 256.434C946.325 255.556 946.019 254.884 945.462 254.418C944.904 253.938 944.142 253.727 943.175 253.786C942.546 253.824 941.945 253.978 941.374 254.248C940.816 254.502 940.229 254.861 939.61 255.325L938.825 254.006C939.54 253.449 940.264 253.023 940.995 252.728C941.726 252.419 942.494 252.24 943.299 252.192C944.763 252.102 945.944 252.442 946.843 253.21C947.741 253.964 948.234 255.065 948.322 256.515L948.618 261.368C948.645 261.821 948.864 262.043 949.275 262.033L949.366 263.526C949.177 263.567 949.01 263.599 948.865 263.623C948.734 263.645 948.625 263.659 948.537 263.665C948.083 263.692 947.731 263.589 947.482 263.354C947.247 263.119 947.107 262.863 947.061 262.586L946.973 261.864C946.514 262.539 945.893 263.076 945.109 263.476C944.325 263.877 943.538 264.101 942.748 264.149C941.986 264.195 941.296 264.083 940.677 263.812C940.057 263.526 939.563 263.13 939.194 262.624C938.825 262.103 938.62 261.513 938.58 260.854ZM946.095 261.212C946.259 260.997 946.385 260.783 946.475 260.572C946.564 260.346 946.605 260.16 946.596 260.014L946.509 258.586C945.55 258.277 944.572 258.153 943.577 258.214C942.596 258.273 941.81 258.52 941.219 258.952C940.642 259.369 940.374 259.915 940.415 260.588C940.437 260.954 940.554 261.307 940.766 261.647C940.991 261.971 941.301 262.231 941.695 262.428C942.104 262.623 942.594 262.704 943.164 262.669C943.765 262.632 944.329 262.481 944.856 262.213C945.382 261.932 945.796 261.598 946.095 261.212Z" fill="black"/>
<path d="M972.308 263.532L970.373 263.505L970.463 257.081C970.479 255.879 970.294 254.989 969.906 254.411C969.533 253.834 968.965 253.54 968.202 253.529C967.425 253.518 966.717 253.794 966.078 254.358C965.44 254.906 964.982 255.626 964.706 256.517L964.609 263.424L962.673 263.397L962.763 256.973C962.78 255.756 962.602 254.866 962.229 254.304C961.855 253.726 961.287 253.432 960.525 253.422C959.762 253.411 959.054 253.68 958.401 254.228C957.763 254.762 957.306 255.481 957.029 256.387L956.932 263.316L954.996 263.289L955.157 251.806L956.917 251.831L956.882 254.295C957.364 253.451 957.981 252.807 958.736 252.362C959.49 251.904 960.337 251.681 961.275 251.694C962.228 251.707 962.987 251.982 963.552 252.518C964.117 253.039 964.459 253.711 964.58 254.535C965.632 252.686 967.105 251.776 968.996 251.802C969.876 251.815 970.563 252.037 971.055 252.469C971.563 252.887 971.914 253.464 972.109 254.2C972.319 254.922 972.418 255.745 972.405 256.668L972.308 263.532Z" fill="black"/>
<path d="M991.149 249.525L994.777 258.212L1000.57 250.764L1002.71 251.046L995.526 260.108L994.783 265.757L992.82 265.499L993.569 259.806L988.99 249.241L991.149 249.525Z" fill="black"/>
<path d="M1006.66 262.934L1008.01 256.182L1009.91 256.563L1008.63 262.948C1008.17 265.249 1008.74 266.559 1010.34 266.879C1011.11 267.035 1011.89 266.936 1012.66 266.582C1013.45 266.217 1014.1 265.636 1014.6 264.84L1016.02 257.786L1017.92 258.166L1016.09 267.27C1016 267.715 1016.16 267.986 1016.56 268.081L1016.26 269.548C1016.04 269.533 1015.87 269.513 1015.74 269.487C1015.62 269.478 1015.5 269.463 1015.39 269.439C1015.03 269.367 1014.74 269.198 1014.53 268.93C1014.31 268.648 1014.23 268.34 1014.28 268.007L1014.5 266.682C1013.85 267.418 1013.06 267.933 1012.13 268.226C1011.22 268.522 1010.27 268.572 1009.3 268.376C1006.91 267.898 1006.03 266.084 1006.66 262.934Z" fill="black"/>
<path d="M1032.2 273.655L1036.8 258.728L1046.66 261.767L1046.14 263.449L1038.17 260.993L1036.64 265.976L1043.34 268.043L1042.86 269.62L1036.15 267.553L1034.09 274.238L1032.2 273.655Z" fill="black"/>
<path d="M1047.66 275.127C1047.91 274.441 1048.33 273.923 1048.9 273.573C1049.49 273.215 1050.18 273.028 1050.97 273.011C1051.76 272.995 1052.6 273.157 1053.51 273.498C1053.99 273.678 1054.48 273.911 1054.99 274.194C1055.5 274.464 1055.93 274.752 1056.28 275.058L1056.58 274.276C1056.89 273.452 1056.88 272.714 1056.57 272.061C1056.25 271.395 1055.64 270.891 1054.74 270.551C1054.15 270.329 1053.53 270.224 1052.9 270.237C1052.29 270.242 1051.61 270.33 1050.85 270.501L1050.67 268.976C1051.56 268.759 1052.39 268.665 1053.18 268.695C1053.97 268.711 1054.74 268.861 1055.5 269.145C1056.87 269.662 1057.81 270.454 1058.32 271.522C1058.83 272.577 1058.83 273.783 1058.32 275.142L1056.61 279.693C1056.45 280.119 1056.56 280.411 1056.94 280.569L1056.41 281.969C1056.22 281.93 1056.06 281.891 1055.91 281.853C1055.79 281.82 1055.68 281.788 1055.6 281.757C1055.17 281.597 1054.89 281.359 1054.76 281.043C1054.64 280.733 1054.62 280.442 1054.69 280.17L1054.91 279.475C1054.21 279.904 1053.42 280.141 1052.55 280.186C1051.67 280.232 1050.86 280.115 1050.12 279.837C1049.4 279.568 1048.82 279.184 1048.36 278.684C1047.91 278.17 1047.62 277.607 1047.49 276.994C1047.37 276.367 1047.42 275.745 1047.66 275.127ZM1054.37 278.522C1054.61 278.392 1054.81 278.249 1054.98 278.093C1055.15 277.923 1055.26 277.769 1055.32 277.632L1055.82 276.294C1055.07 275.62 1054.23 275.108 1053.3 274.757C1052.38 274.411 1051.56 274.315 1050.84 274.469C1050.14 274.614 1049.68 275.002 1049.44 275.634C1049.31 275.977 1049.27 276.347 1049.33 276.743C1049.4 277.131 1049.58 277.495 1049.86 277.836C1050.15 278.181 1050.56 278.454 1051.1 278.656C1051.66 278.867 1052.24 278.959 1052.83 278.93C1053.43 278.888 1053.94 278.752 1054.37 278.522Z" fill="black"/>
<path d="M1070.76 288.226L1069 287.436L1071.62 281.571C1072.11 280.46 1072.3 279.572 1072.18 278.908C1072.08 278.236 1071.68 277.744 1070.99 277.433C1070.5 277.217 1069.97 277.122 1069.38 277.148C1068.8 277.179 1068.23 277.319 1067.67 277.566C1067.13 277.806 1066.66 278.158 1066.26 278.622L1063.43 284.948L1061.67 284.158L1066.35 273.674L1067.96 274.393L1066.95 276.642C1067.7 276.091 1068.56 275.769 1069.53 275.674C1070.52 275.585 1071.47 275.748 1072.4 276.161C1073.21 276.526 1073.76 277.001 1074.03 277.587C1074.31 278.166 1074.4 278.831 1074.29 279.585C1074.18 280.325 1073.94 281.116 1073.56 281.96L1070.76 288.226Z" fill="black"/>
<path d="M1080.36 293.209C1079.44 292.724 1078.75 292.053 1078.28 291.198C1077.84 290.336 1077.63 289.403 1077.64 288.399C1077.67 287.403 1077.92 286.457 1078.39 285.561C1078.9 284.601 1079.55 283.827 1080.36 283.24C1081.18 282.647 1082.08 282.298 1083.05 282.193C1084.01 282.089 1084.96 282.279 1085.88 282.763C1086.72 283.207 1087.35 283.801 1087.75 284.544C1088.17 285.294 1088.42 286.099 1088.52 286.961L1089.58 284.936L1091.1 285.735L1085.82 295.781C1085.31 296.742 1084.65 297.43 1083.83 297.847C1083.03 298.27 1082.15 298.441 1081.18 298.362C1080.21 298.303 1079.25 298.021 1078.29 297.516C1077.15 296.915 1076.32 296.222 1075.81 295.437C1075.29 294.652 1074.97 293.79 1074.85 292.849L1076.31 292.495C1076.4 293.304 1076.68 294.025 1077.16 294.658C1077.65 295.298 1078.26 295.809 1078.99 296.192C1079.61 296.519 1080.24 296.703 1080.89 296.743C1081.53 296.802 1082.14 296.68 1082.69 296.376C1083.26 296.08 1083.73 295.581 1084.1 294.88L1085.05 293.089C1084.34 293.514 1083.56 293.734 1082.71 293.749C1081.87 293.771 1081.09 293.591 1080.36 293.209ZM1081.62 292.083C1082.1 292.336 1082.62 292.468 1083.18 292.48C1083.74 292.491 1084.26 292.4 1084.74 292.207C1085.23 292.02 1085.63 291.763 1085.92 291.434L1087.45 288.513C1087.54 287.682 1087.4 286.885 1087.02 286.123C1086.65 285.348 1086.13 284.783 1085.45 284.427C1084.76 284.066 1084.07 283.94 1083.36 284.05C1082.67 284.167 1082.04 284.446 1081.46 284.886C1080.89 285.334 1080.44 285.876 1080.1 286.512C1079.75 287.187 1079.58 287.892 1079.59 288.627C1079.6 289.349 1079.78 290.021 1080.12 290.645C1080.47 291.262 1080.97 291.742 1081.62 292.083Z" fill="black"/>
<path d="M793.336 573.04L795.007 573.072L801.09 588.81L798.978 588.77L797.218 584.16L790.663 584.036L788.75 588.576L786.639 588.536L793.336 573.04ZM796.807 582.612L794.128 575.344L791.088 582.503L796.807 582.612Z" fill="black"/>
<path d="M816.739 589.078L814.803 589.045L814.912 582.622C814.932 581.405 814.756 580.515 814.385 579.951C814.028 579.373 813.468 579.077 812.705 579.065C812.177 579.056 811.647 579.179 811.115 579.434C810.597 579.689 810.129 580.04 809.711 580.488C809.307 580.921 809.013 581.43 808.827 582.013L808.71 588.942L806.774 588.91L806.968 577.427L808.728 577.457L808.686 579.921C809.155 579.122 809.818 578.488 810.677 578.018C811.55 577.549 812.493 577.323 813.505 577.34C814.399 577.355 815.085 577.579 815.562 578.013C816.053 578.432 816.395 579.01 816.588 579.746C816.782 580.468 816.87 581.291 816.855 582.215L816.739 589.078Z" fill="black"/>
<path d="M839.386 573.796L841.057 573.819L847.223 589.525L845.111 589.496L843.326 584.895L836.771 584.805L834.882 589.356L832.77 589.327L839.386 573.796ZM842.907 583.349L840.19 576.095L837.188 583.271L842.907 583.349Z" fill="black"/>
<path d="M856.842 589.86C855.888 589.849 854.995 589.684 854.163 589.366C853.331 589.034 852.618 588.549 852.024 587.911L852.788 586.556C853.441 587.18 854.096 587.627 854.752 587.899C855.409 588.171 856.082 588.311 856.772 588.319C857.564 588.328 858.211 588.189 858.713 587.902C859.215 587.599 859.469 587.155 859.476 586.568C859.481 586.143 859.353 585.826 859.091 585.618C858.845 585.41 858.487 585.237 858.019 585.099C857.552 584.947 856.996 584.779 856.353 584.596C855.169 584.244 854.265 583.838 853.639 583.376C853.029 582.899 852.729 582.214 852.739 581.319C852.752 580.234 853.173 579.403 854.001 578.826C854.844 578.234 855.911 577.946 857.201 577.961C858.932 577.981 860.289 578.518 861.275 579.571L860.379 580.903C859.495 579.968 858.393 579.493 857.073 579.478C856.677 579.473 856.288 579.52 855.906 579.618C855.523 579.702 855.206 579.867 854.954 580.113C854.702 580.345 854.573 580.68 854.568 581.12C854.562 581.663 854.777 582.054 855.214 582.294C855.651 582.534 856.294 582.783 857.142 583.043C858.004 583.302 858.749 583.56 859.377 583.817C860.019 584.074 860.514 584.402 860.861 584.803C861.208 585.203 861.378 585.755 861.37 586.459C861.357 587.544 860.936 588.39 860.108 588.996C859.28 589.588 858.191 589.876 856.842 589.86Z" fill="black"/>
<path d="M874.465 590.048C873.527 590.039 872.693 589.796 871.964 589.32C871.236 588.843 870.662 588.244 870.244 587.521L870.176 594.473L868.24 594.454L868.399 578.284L870.115 578.301L870.093 580.457C870.555 579.758 871.154 579.199 871.892 578.781C872.63 578.348 873.431 578.136 874.296 578.144C875.088 578.152 875.813 578.32 876.469 578.65C877.126 578.979 877.694 579.424 878.172 579.986C878.651 580.548 879.019 581.19 879.276 581.911C879.547 582.618 879.679 583.36 879.672 584.137C879.661 585.223 879.431 586.218 878.982 587.123C878.548 588.028 877.94 588.748 877.157 589.283C876.374 589.803 875.477 590.058 874.465 590.048ZM873.888 588.371C874.65 588.378 875.312 588.179 875.874 587.774C876.435 587.369 876.873 586.838 877.187 586.181C877.517 585.524 877.685 584.837 877.692 584.118C877.699 583.341 877.53 582.628 877.185 581.979C876.854 581.33 876.389 580.812 875.792 580.425C875.209 580.023 874.544 579.819 873.796 579.811C873.341 579.807 872.856 579.92 872.34 580.149C871.84 580.379 871.396 580.69 871.011 581.082C870.641 581.46 870.402 581.883 870.295 582.351L870.263 585.629C870.578 586.395 871.063 587.045 871.717 587.579C872.387 588.099 873.11 588.363 873.888 588.371Z" fill="black"/>
<path d="M886.338 576.296L886.358 573.876L888.293 573.892L888.274 576.311L886.338 576.296ZM886.225 589.935L886.32 578.451L888.256 578.467L888.161 589.951L886.225 589.935Z" fill="black"/>
<path d="M901.764 580.262C900.796 580.27 899.936 580.513 899.185 580.992C898.448 581.456 897.923 582.105 897.609 582.939L897.56 590.022L895.624 590.009L895.704 578.525L897.508 578.538L897.489 581.2C897.891 580.411 898.416 579.776 899.065 579.297C899.728 578.803 900.419 578.529 901.138 578.475C901.285 578.476 901.41 578.477 901.512 578.478C901.615 578.479 901.703 578.486 901.776 578.502L901.764 580.262Z" fill="black"/>
<path d="M908.517 576.453L908.531 574.033L910.467 574.044L910.453 576.464L908.517 576.453ZM908.439 590.093L908.505 578.609L910.441 578.62L910.375 590.104L908.439 590.093Z" fill="black"/>
<path d="M927.805 590.186L925.869 590.178L925.896 583.754C925.901 582.537 925.714 581.649 925.335 581.09C924.971 580.516 924.407 580.228 923.645 580.225C923.117 580.222 922.588 580.352 922.059 580.614C921.545 580.876 921.081 581.233 920.669 581.686C920.271 582.124 919.983 582.637 919.804 583.223L919.775 590.152L917.839 590.144L917.887 578.66L919.647 578.668L919.637 581.132C920.095 580.327 920.75 579.684 921.603 579.204C922.47 578.724 923.41 578.486 924.422 578.49C925.317 578.494 926.005 578.709 926.487 579.137C926.984 579.549 927.334 580.123 927.536 580.857C927.738 581.577 927.838 582.398 927.834 583.322L927.805 590.186Z" fill="black"/>
<path d="M939.503 590.351C938.461 590.349 937.538 590.075 936.732 589.531C935.942 588.972 935.32 588.244 934.867 587.349C934.429 586.453 934.211 585.499 934.214 584.487C934.216 583.402 934.438 582.413 934.88 581.519C935.337 580.61 935.969 579.886 936.777 579.345C937.585 578.804 938.509 578.535 939.551 578.537C940.504 578.539 941.332 578.776 942.035 579.247C942.753 579.717 943.353 580.313 943.835 581.033L943.84 578.745L945.556 578.748L945.531 590.1C945.529 591.186 945.263 592.102 944.733 592.849C944.218 593.595 943.513 594.159 942.617 594.538C941.737 594.932 940.753 595.128 939.668 595.125C938.377 595.123 937.322 594.893 936.502 594.436C935.681 593.98 935.001 593.362 934.46 592.584L935.584 591.596C936.037 592.272 936.623 592.779 937.341 593.118C938.073 593.457 938.85 593.628 939.671 593.629C940.375 593.631 941.021 593.5 941.608 593.238C942.21 592.99 942.688 592.602 943.041 592.075C943.409 591.548 943.593 590.888 943.595 590.096L943.6 588.072C943.173 588.775 942.585 589.331 941.836 589.74C941.102 590.149 940.324 590.353 939.503 590.351ZM940.1 588.768C940.643 588.77 941.164 588.646 941.663 588.398C942.162 588.15 942.581 587.828 942.919 587.433C943.272 587.037 943.5 586.627 943.604 586.202L943.611 582.902C943.305 582.124 942.807 581.485 942.119 580.985C941.431 580.47 940.706 580.212 939.943 580.21C939.166 580.208 938.49 580.419 937.918 580.844C937.359 581.268 936.925 581.809 936.616 582.469C936.321 583.128 936.173 583.817 936.171 584.536C936.17 585.298 936.344 586.003 936.695 586.649C937.045 587.28 937.514 587.795 938.099 588.192C938.7 588.575 939.367 588.767 940.1 588.768Z" fill="black"/>
<path d="M969.877 590.346C968.631 590.347 967.582 590.136 966.731 589.712C965.879 589.273 965.197 588.687 964.683 587.954C964.168 587.207 963.793 586.364 963.558 585.425C963.322 584.487 963.203 583.519 963.202 582.522L963.193 574.624L965.173 574.621L965.182 582.519C965.183 583.282 965.257 584.03 965.405 584.763C965.567 585.482 965.824 586.127 966.177 586.698C966.53 587.27 967.007 587.724 967.609 588.06C968.21 588.397 968.959 588.565 969.853 588.564C970.763 588.563 971.518 588.393 972.119 588.055C972.72 587.702 973.196 587.24 973.547 586.668C973.898 586.08 974.147 585.427 974.293 584.709C974.453 583.99 974.533 583.256 974.532 582.508L974.523 574.61L976.503 574.608L976.512 582.506C976.513 583.562 976.39 584.567 976.142 585.52C975.908 586.459 975.528 587.289 975.001 588.008C974.473 588.727 973.785 589.3 972.935 589.726C972.099 590.138 971.08 590.344 969.877 590.346Z" fill="black"/>
<path d="M984.323 574.588L989.053 581.04L993.739 574.556L995.961 574.548L990.158 582.488L995.838 590.169L993.616 590.176L989.063 583.944L984.552 590.207L982.308 590.214L987.936 582.495L982.079 574.595L984.323 574.588Z" fill="black"/>
<path d="M1012.13 590.085L1012.03 574.465L1017.44 574.429C1019.11 574.418 1020.51 574.76 1021.63 575.457C1022.76 576.139 1023.61 577.072 1024.17 578.256C1024.74 579.426 1025.03 580.729 1025.04 582.166C1025.05 583.75 1024.75 585.131 1024.14 586.308C1023.53 587.486 1022.67 588.401 1021.54 589.054C1020.42 589.707 1019.08 590.038 1017.54 590.049L1012.13 590.085ZM1023.03 582.18C1023.03 581.006 1022.8 579.967 1022.35 579.06C1021.92 578.154 1021.29 577.447 1020.47 576.939C1019.65 576.431 1018.64 576.181 1017.45 576.189L1014.02 576.212L1014.1 588.312L1017.53 588.289C1018.73 588.281 1019.74 588.01 1020.56 587.476C1021.38 586.928 1022 586.198 1022.42 585.286C1022.84 584.359 1023.04 583.324 1023.03 582.18Z" fill="black"/>
<path d="M1036.56 590.121C1035.41 590.131 1034.4 589.869 1033.51 589.334C1032.63 588.799 1031.93 588.079 1031.43 587.174C1030.92 586.269 1030.66 585.282 1030.65 584.211C1030.64 583.126 1030.88 582.133 1031.38 581.234C1031.87 580.335 1032.55 579.611 1033.42 579.06C1034.31 578.51 1035.33 578.23 1036.48 578.219C1037.63 578.209 1038.64 578.479 1039.5 579.029C1040.37 579.564 1041.04 580.277 1041.52 581.167C1042.01 582.043 1042.26 582.994 1042.27 584.021C1042.27 584.343 1042.26 584.593 1042.23 584.769L1032.71 584.853C1032.77 585.6 1032.98 586.266 1033.34 586.849C1033.71 587.418 1034.18 587.869 1034.76 588.201C1035.33 588.519 1035.95 588.674 1036.61 588.669C1037.32 588.662 1037.97 588.481 1038.59 588.123C1039.21 587.766 1039.64 587.3 1039.87 586.726L1041.55 587.173C1041.19 588.027 1040.56 588.729 1039.65 589.28C1038.75 589.831 1037.72 590.111 1036.56 590.121ZM1032.63 583.511L1040.46 583.443C1040.39 582.695 1040.18 582.037 1039.8 581.468C1039.43 580.9 1038.96 580.456 1038.38 580.139C1037.81 579.821 1037.18 579.665 1036.49 579.671C1035.81 579.677 1035.19 579.844 1034.62 580.172C1034.05 580.5 1033.59 580.951 1033.23 581.526C1032.88 582.101 1032.68 582.763 1032.63 583.511Z" fill="black"/>
<path d="M1052.5 589.966C1051.55 589.977 1050.65 589.832 1049.81 589.533C1048.97 589.219 1048.25 588.75 1047.64 588.126L1048.37 586.754C1049.04 587.363 1049.71 587.796 1050.37 588.053C1051.03 588.31 1051.71 588.435 1052.4 588.427C1053.19 588.419 1053.83 588.265 1054.33 587.967C1054.82 587.653 1055.07 587.204 1055.06 586.617C1055.06 586.192 1054.92 585.878 1054.66 585.675C1054.4 585.472 1054.04 585.308 1053.57 585.181C1053.1 585.039 1052.54 584.884 1051.9 584.715C1050.7 584.39 1049.79 584.004 1049.15 583.556C1048.53 583.093 1048.22 582.414 1048.21 581.52C1048.2 580.434 1048.6 579.594 1049.41 578.999C1050.24 578.388 1051.3 578.076 1052.59 578.063C1054.32 578.044 1055.69 578.55 1056.7 579.581L1055.84 580.932C1054.93 580.018 1053.82 579.568 1052.5 579.582C1052.1 579.586 1051.72 579.641 1051.34 579.748C1050.96 579.84 1050.64 580.012 1050.4 580.264C1050.15 580.502 1050.03 580.84 1050.03 581.28C1050.04 581.823 1050.26 582.209 1050.7 582.439C1051.15 582.669 1051.8 582.904 1052.65 583.144C1053.52 583.384 1054.27 583.626 1054.9 583.868C1055.55 584.111 1056.05 584.428 1056.41 584.82C1056.76 585.213 1056.94 585.761 1056.95 586.465C1056.96 587.55 1056.56 588.405 1055.75 589.03C1054.93 589.64 1053.85 589.952 1052.5 589.966Z" fill="black"/>
<path d="M1063.77 575.978L1063.74 573.558L1065.68 573.535L1065.71 575.955L1063.77 575.978ZM1063.94 589.617L1063.8 578.134L1065.74 578.111L1065.87 589.594L1063.94 589.617Z" fill="black"/>
<path d="M1077.91 589.571C1076.87 589.585 1075.95 589.326 1075.13 588.794C1074.33 588.248 1073.7 587.53 1073.23 586.642C1072.78 585.753 1072.55 584.803 1072.53 583.791C1072.52 582.706 1072.73 581.713 1073.15 580.813C1073.6 579.897 1074.22 579.163 1075.02 578.609C1075.81 578.055 1076.73 577.771 1077.78 577.757C1078.73 577.744 1079.56 577.968 1080.27 578.427C1081 578.887 1081.61 579.473 1082.1 580.185L1082.07 577.897L1083.78 577.873L1083.94 589.224C1083.95 590.31 1083.7 591.23 1083.18 591.985C1082.68 592.74 1081.98 593.314 1081.1 593.708C1080.22 594.115 1079.24 594.327 1078.16 594.342C1076.87 594.359 1075.81 594.146 1074.98 593.703C1074.15 593.259 1073.46 592.653 1072.91 591.883L1074.02 590.878C1074.48 591.546 1075.07 592.044 1075.8 592.372C1076.53 592.699 1077.31 592.857 1078.14 592.846C1078.84 592.836 1079.48 592.695 1080.07 592.423C1080.66 592.166 1081.14 591.771 1081.48 591.238C1081.84 590.705 1082.01 590.043 1082 589.251L1081.98 587.227C1081.56 587.937 1080.98 588.502 1080.24 588.923C1079.51 589.343 1078.74 589.559 1077.91 589.571ZM1078.49 587.979C1079.03 587.971 1079.55 587.839 1080.04 587.583C1080.54 587.327 1080.95 586.999 1081.28 586.598C1081.63 586.198 1081.85 585.784 1081.95 585.357L1081.9 582.057C1081.59 581.284 1081.08 580.653 1080.38 580.164C1079.69 579.66 1078.96 579.413 1078.19 579.424C1077.42 579.434 1076.75 579.656 1076.18 580.089C1075.63 580.522 1075.2 581.071 1074.9 581.735C1074.62 582.399 1074.48 583.09 1074.49 583.809C1074.5 584.571 1074.69 585.273 1075.05 585.913C1075.41 586.539 1075.89 587.046 1076.48 587.434C1077.08 587.807 1077.75 587.989 1078.49 587.979Z" fill="black"/>
<path d="M1101.24 589.093L1099.31 589.123L1099.21 582.7C1099.19 581.482 1098.98 580.598 1098.59 580.047C1098.22 579.481 1097.65 579.204 1096.89 579.215C1096.36 579.224 1095.83 579.364 1095.31 579.636C1094.8 579.908 1094.34 580.275 1093.94 580.736C1093.55 581.182 1093.27 581.7 1093.11 582.289L1093.21 589.218L1091.28 589.248L1091.1 577.766L1092.86 577.738L1092.9 580.202C1093.34 579.388 1093.98 578.733 1094.82 578.236C1095.68 577.738 1096.62 577.481 1097.63 577.466C1098.52 577.452 1099.22 577.653 1099.71 578.071C1100.21 578.474 1100.57 579.04 1100.79 579.77C1101.01 580.486 1101.12 581.305 1101.14 582.229L1101.24 589.093Z" fill="black"/>
<path d="M1113.45 589.104C1112.31 589.124 1111.29 588.871 1110.4 588.344C1109.51 587.817 1108.81 587.103 1108.29 586.202C1107.78 585.302 1107.51 584.317 1107.49 583.246C1107.47 582.161 1107.71 581.167 1108.19 580.263C1108.67 579.36 1109.35 578.629 1110.22 578.071C1111.1 577.513 1112.12 577.224 1113.26 577.204C1114.42 577.183 1115.43 577.444 1116.29 577.986C1117.16 578.514 1117.84 579.221 1118.33 580.107C1118.83 580.978 1119.09 581.927 1119.11 582.954C1119.11 583.276 1119.1 583.526 1119.07 583.702L1109.55 583.87C1109.62 584.617 1109.84 585.28 1110.2 585.861C1110.58 586.426 1111.06 586.873 1111.63 587.2C1112.21 587.512 1112.83 587.663 1113.49 587.651C1114.19 587.639 1114.85 587.451 1115.46 587.089C1116.08 586.725 1116.51 586.256 1116.73 585.68L1118.41 586.112C1118.06 586.969 1117.44 587.677 1116.54 588.236C1115.64 588.794 1114.61 589.084 1113.45 589.104ZM1109.46 582.529L1117.29 582.392C1117.22 581.645 1117 580.989 1116.62 580.423C1116.24 579.858 1115.76 579.419 1115.19 579.106C1114.61 578.794 1113.98 578.643 1113.29 578.655C1112.61 578.667 1111.99 578.84 1111.43 579.172C1110.86 579.505 1110.4 579.96 1110.04 580.539C1109.7 581.117 1109.51 581.78 1109.46 582.529Z" fill="black"/>
<path d="M1131.33 578.76C1130.36 578.793 1129.51 579.059 1128.77 579.557C1128.05 580.041 1127.54 580.703 1127.25 581.545L1127.38 588.628L1125.45 588.665L1125.23 577.183L1127.03 577.148L1127.08 579.81C1127.46 579.01 1127.97 578.363 1128.61 577.866C1129.26 577.355 1129.94 577.063 1130.66 576.99C1130.8 576.988 1130.93 576.985 1131.03 576.983C1131.13 576.981 1131.22 576.987 1131.3 577L1131.33 578.76Z" fill="black"/>
<g clip-path="url(#clip0)">
<path d="M932.77 374.134C934.305 371.372 934.305 366.894 932.77 364.132L931.795 362.378C930.735 360.472 930.735 357.382 931.795 355.476C932.303 354.561 932.589 353.607 932.589 352.313V339.655C932.589 322.609 941.417 311.74 949.475 309.599C957.532 307.459 954.401 311.74 954.401 311.74C954.401 311.74 948.243 358.617 949.475 362.879C950.707 367.141 950.707 369.804 950.707 369.804L950.091 376.729C950.091 376.729 949.475 379.925 952.554 383.654C955.633 387.383 952.554 390.579 952.554 390.579C952.554 390.579 944.548 393.776 941.417 390.579C938.286 387.383 935.063 388.262 932.77 384.136C931.234 381.374 931.234 376.896 932.77 374.134Z" fill="#5A3825"/>
<path d="M985.512 374.134C983.957 371.372 983.957 366.894 985.512 364.132L986.499 362.378C987.304 360.116 987.014 356.391 986.499 355.476C985.984 354.561 985.695 353.607 985.695 352.313V339.655C985.695 322.609 976.755 311.74 968.595 309.599C960.436 307.459 963.606 311.74 963.606 311.74C963.606 311.74 969.842 358.617 968.595 362.879C967.348 367.141 967.348 369.804 967.348 369.804L967.971 376.729C967.971 376.729 968.595 379.925 965.477 383.654C962.359 387.383 965.477 390.579 965.477 390.579C965.477 390.579 973.584 393.776 976.755 390.579C979.925 387.383 983.189 388.262 985.512 384.136C987.067 381.374 987.067 376.896 985.512 374.134Z" fill="#5A3825"/>
<path d="M932 337L931.764 341.114L931.601 347.286C931.601 348.745 931.44 350.883 931.152 351.914C930.847 354.486 931.003 356.553 931.601 358.701L932.682 363.229C933.548 366.341 933.018 368.838 932.151 371.951C931.285 375.063 931.285 380.11 932.151 383.223C933.445 387.873 941.33 390.5 942 391C942.67 391.5 943 391 943 391L944 337H932Z" fill="#5A3825"/>
<path d="M961.092 310.888H958.833C954.659 310.888 950.806 313.921 948.749 318.828L941.638 335.789L948.749 352.748C950.806 357.655 954.658 360.688 958.833 360.688H961.092C969.949 358.689 976.684 348.296 976.684 335.789C976.684 323.271 969.94 312.881 961.092 310.888V310.888Z" fill="#F8D9BD"/>
<path d="M945.501 335.789C945.501 323.271 952.245 312.881 961.092 310.888C960.084 310.661 959.05 310.542 957.994 310.542C947.673 310.542 939.306 321.846 939.306 335.789C939.306 349.763 947.7 361.035 957.994 361.035C959.05 361.035 960.085 360.916 961.092 360.688C952.245 358.694 945.501 348.306 945.501 335.789Z" fill="#F8D9BD"/>
<path d="M961.19 309.434L963.089 318.279C965.276 327.494 972.582 334.93 978.506 337.147L977.605 319.137L969.762 313.536L961.19 309.434Z" fill="#5A3825"/>
<path d="M964.835 311.233C964.831 308.403 963.074 305.966 960.664 305.425C959.755 305.22 958.826 305.078 957.882 305H957.269C953.183 305 949.229 306.669 946.11 309.71L939.316 316.333V335.608L940.683 338.81C942.479 338.695 946.491 337.491 948.155 336.932C957.793 333.693 964.835 323.436 964.835 311.281C964.835 311.265 964.835 311.249 964.835 311.233Z" fill="#5A3825"/>
<path d="M958.084 305.07C961.596 305.07 956.851 304.996 956.225 305.001C943.307 305.103 932.5 317.183 932.5 331.983L932 337.273L941.666 338.222C942.063 338.222 942.458 338.21 942.851 338.187C941.08 334.876 940.92 332.516 941.666 325.785C946.444 312.795 950.009 308.118 958.084 305.07Z" fill="#5A3825"/>
<path d="M974.144 341.759C975.259 341.759 976.162 340.332 976.162 338.57C976.162 336.809 975.259 335.381 974.144 335.381C973.03 335.381 972.126 336.809 972.126 338.57C972.126 340.332 973.03 341.759 974.144 341.759Z" fill="#F8D9BD"/>
<path d="M976.837 340.712C977.952 340.731 978.873 339.318 978.896 337.557C978.919 335.796 978.034 334.353 976.92 334.334C975.806 334.315 974.884 335.727 974.861 337.488C974.838 339.249 975.723 340.692 976.837 340.712Z" fill="#F8D9BD"/>
<path d="M939.512 341.759C940.626 341.759 941.529 340.332 941.529 338.57C941.529 336.809 940.626 335.381 939.512 335.381C938.397 335.381 937.494 336.809 937.494 338.57C937.494 340.332 938.397 341.759 939.512 341.759Z" fill="#F8D9BD"/>
</g>
</g>
<defs>
<filter id="filter0_d" x="0" y="0" width="1920" height="918" filterUnits="userSpaceOnUse" color-interpolation-filters="sRGB">
<feFlood flood-opacity="0" result="BackgroundImageFix"/>
<feColorMatrix in="SourceAlpha" type="matrix" values="0 0 0 0 0 0 0 0 0 0 0 0 0 0 0 0 0 0 127 0"/>
<feOffset dy="4"/>
<feGaussianBlur stdDeviation="2"/>
<feColorMatrix type="matrix" values="0 0 0 0 0 0 0 0 0 0 0 0 0 0 0 0 0 0 0.25 0"/>
<feBlend mode="normal" in2="BackgroundImageFix" result="effect1_dropShadow"/>
<feBlend mode="normal" in="SourceGraphic" in2="effect1_dropShadow" result="shape"/>
</filter>
<clipPath id="clip0">
<rect width="72" height="88" fill="white" transform="translate(922 305)"/>
</clipPath>
</defs>
</svg>
